<svg id="root" class="icon icon--default icon--globe" xmlns="http://www.w3.org/2000/svg" viewBox="0 0 20 20"><path d="M10 .002a10 10 0 1 1-10 10 10 10 0 0 1 10-10Zm0 18.46a8.461 8.461 0 1 0-8.462-8.461A8.461 8.461 0 0 0 10 18.462Z"/><path d="M18.63 7.668H1.37a.76.76 0 0 1-.77-.75.76.76 0 0 1 .77-.75h17.26a.76.76 0 0 1 .77.75.76.76 0 0 1-.77.75Zm0 6.166H1.37a.76.76 0 0 1-.77-.75.76.76 0 0 1 .77-.75h17.26a.76.76 0 0 1 .77.75.76.76 0 0 1-.77.75Z"/><path d="M9.442 20a.745.745 0 0 1-.637-.362 18.6 18.6 0 0 1 0-19.274.739.739 0 0 1 1.037-.246.781.781 0 0 1 .239 1.06 17.027 17.027 0 0 0 0 17.645.786.786 0 0 1 .02.78.747.747 0 0 1-.656.4Z"/><path d="M10.558 20a.747.747 0 0 1-.656-.4.786.786 0 0 1 .02-.78 16.964 16.964 0 0 0 2.464-8.823 16.966 16.966 0 0 0-2.465-8.821.782.782 0 0 1 .237-1.058.74.74 0 0 1 1.036.243 18.53 18.53 0 0 1 2.692 9.64 18.53 18.53 0 0 1-2.692 9.64.746.746 0 0 1-.636.359Z"/></svg>