<svg id="root" class="icon icon--default icon--instagram" xmlns="http://www.w3.org/2000/svg" viewBox="0 0 22.381 22.386"><path d="M22.324 6.582a8.18 8.18 0 0 0-.52-2.716A5.734 5.734 0 0 0 18.528.59a8.2 8.2 0 0 0-2.715-.52C14.614.013 14.234 0 11.195 0s-3.42.013-4.614.066a8.182 8.182 0 0 0-2.716.52A5.462 5.462 0 0 0 1.88 1.88 5.511 5.511 0 0 0 .59 3.861a8.2 8.2 0 0 0-.52 2.716C.013 7.775 0 8.156 0 11.2s.013 3.42.066 4.614a8.179 8.179 0 0 0 .52 2.716 5.734 5.734 0 0 0 3.275 3.27 8.2 8.2 0 0 0 2.716.52c1.194.053 1.574.066 4.614.066s3.42-.013 4.614-.066a8.178 8.178 0 0 0 2.716-.52 5.726 5.726 0 0 0 3.276-3.275 8.207 8.207 0 0 0 .52-2.716c.052-1.194.066-1.574.066-4.614s0-3.42-.057-4.614Zm-2.016 9.14a6.136 6.136 0 0 1-.385 2.077 3.713 3.713 0 0 1-2.125 2.125 6.158 6.158 0 0 1-2.077.385c-1.181.053-1.535.066-4.522.066s-3.345-.013-4.522-.066a6.133 6.133 0 0 1-2.077-.385 3.445 3.445 0 0 1-1.286-.835 3.48 3.48 0 0 1-.835-1.289 6.159 6.159 0 0 1-.385-2.077c-.053-1.181-.066-1.535-.066-4.522s.013-3.345.066-4.522A6.133 6.133 0 0 1 2.479 4.6a3.4 3.4 0 0 1 .84-1.286 3.475 3.475 0 0 1 1.286-.835A6.162 6.162 0 0 1 6.682 2.1c1.181-.052 1.535-.066 4.522-.066s3.347.013 4.521.066a6.136 6.136 0 0 1 2.077.385 3.442 3.442 0 0 1 1.286.835 3.48 3.48 0 0 1 .835 1.28 6.161 6.161 0 0 1 .385 2.077c.052 1.181.066 1.535.066 4.522s-.013 3.337-.066 4.517Zm0 0"/><path d="M11.195 5.445a5.751 5.751 0 1 0 5.751 5.751 5.752 5.752 0 0 0-5.751-5.751Zm0 9.481a3.73 3.73 0 1 1 3.73-3.73 3.731 3.731 0 0 1-3.73 3.73Zm7.32-9.709a1.343 1.343 0 1 1-1.343-1.343 1.343 1.343 0 0 1 1.343 1.343Zm0 0"/></svg>