<svg id="root" class="icon icon--default icon--logo" xmlns="http://www.w3.org/2000/svg" viewBox="0 0 124 20"><path d="M10.514 9.449v3.53h1.964v2.137a5.015 5.015 0 0 1-3.092.7 4.508 4.508 0 0 1-4.154-3.092 5.341 5.341 0 0 1 .783-4.937 4.349 4.349 0 0 1 3.371-1.643 6.212 6.212 0 0 1 4.247 1.664l2.84-3.45a10.246 10.246 0 0 0-7.087-2.54 9.45 9.45 0 0 0-7.14 3.079 9.075 9.075 0 0 0-2.19 7.1c.477 4.674 4.256 7.968 9.33 8a11.558 11.558 0 0 0 7.684-2.721v-7.83Zm5.547 7.326a10.938 10.938 0 0 1-6.675 2.243c-4.466-.075-8.362-3.065-8.414-8.083a7.957 7.957 0 0 1 2.654-6.012A8.761 8.761 0 0 1 9.4 2.827a9.3 9.3 0 0 1 5.613 1.681l-1.575 1.885A6.654 6.654 0 0 0 9.4 5.162a5.065 5.065 0 0 0-3.783 1.54 5.623 5.623 0 0 0-1.686 4.206 5.552 5.552 0 0 0 5.454 5.906 5.845 5.845 0 0 0 4.048-1.181v-3.636h-1.964v-1.566h4.592ZM27.039 5.707l-1.7-.983 1.725-1a1 1 0 0 0 .292-1.393.983.983 0 0 0-1.336-.388l-1.716 1V.956A1 1 0 0 0 23.275 0a.988.988 0 0 0-1.02.951v1.993l-1.724-1a.986.986 0 0 0-1.333.408.988.988 0 0 0 .315 1.36l1.725 1-1.727 1a1.029 1.029 0 0 0-.322 1.388.987.987 0 0 0 1.34.385l1.725-1v1.981a1.015 1.015 0 0 0 1.026.978 1 1 0 0 0 1.022-.969V6.49l1.712 1a.992.992 0 0 0 1.34-.372 1.008 1.008 0 0 0-.316-1.406m11.465 14.287c-5.074-.035-8.852-3.328-9.33-8a9.075 9.075 0 0 1 2.19-7.1 9.452 9.452 0 0 1 7.14-3.079 10.247 10.247 0 0 1 7.087 2.535l-2.84 3.45a6.212 6.212 0 0 0-4.247-1.659 4.349 4.349 0 0 0-3.371 1.646 5.341 5.341 0 0 0-.783 4.937 4.508 4.508 0 0 0 4.154 3.092 5.015 5.015 0 0 0 3.092-.7v-2.142h-1.964v-3.53h6.556v7.83A11.558 11.558 0 0 1 38.503 20m22.666-6.436a5.6 5.6 0 0 0 3.6-5.136c.142-3.971-2.48-6.308-7.379-6.251-.784.009-8.122-.006-8.122-.006v17.484h4.844v-5.291l2.154.005 3.5 5.29h5.574Zm-3.782-3h-3.278v-4.22h3.278c1.643 0 2.529.818 2.533 2.1.005 1.48-1.124 2.122-2.533 2.123m19.935 2.174-1.951-4.95-1.964 4.95ZM77.8 2.177l7.378 17.48h-5.189l-1.248-3.145h-6.755l-1.264 3.145h-5.056l7.356-17.48Zm15.728 3.437A8.913 8.913 0 0 1 97.801 7.1l2.717-3.265a12.182 12.182 0 0 0-7.206-2.07c-3.872 0-7.395 1.808-7.309 5.627s2.971 4.59 5.053 5.1c1.326.322 2.6.417 3.676.677 1.1.267 1.89.629 1.632 1.659-.21.838-1.724 1.138-3.344.982a8.8 8.8 0 0 1-4.711-1.924l-2.734 3.384a12.193 12.193 0 0 0 8.228 2.734c5.178 0 7.494-2.85 7.631-5.64a4.533 4.533 0 0 0-2.667-4.725 19.209 19.209 0 0 0-5.481-1.354c-1.086-.183-2.166-.464-2.216-1.314a1.077 1.077 0 0 1 .756-1.141 4.034 4.034 0 0 1 1.7-.212m16.693-.004a8.913 8.913 0 0 1 4.273 1.486l2.721-3.265a12.182 12.182 0 0 0-7.206-2.07c-3.872 0-7.395 1.808-7.309 5.627s2.971 4.59 5.053 5.1c1.326.322 2.6.417 3.676.677 1.1.267 1.89.629 1.632 1.659-.21.838-1.724 1.138-3.344.982a8.8 8.8 0 0 1-4.711-1.924l-2.734 3.384a12.193 12.193 0 0 0 8.228 2.734c5.178 0 7.494-2.85 7.631-5.64a4.533 4.533 0 0 0-2.668-4.725 19.209 19.209 0 0 0-5.481-1.354c-1.086-.183-2.166-.464-2.216-1.314a1.077 1.077 0 0 1 .756-1.141 4.034 4.034 0 0 1 1.7-.212M121.049.012a2.17 2.17 0 0 0-2.232 2.161 2.211 2.211 0 0 0 4.422 0 2.154 2.154 0 0 0-2.19-2.165m0 4a1.77 1.77 0 0 1-1.8-1.841 1.774 1.774 0 1 1 3.547 0 1.754 1.754 0 0 1-1.752 1.841"/><path d="M122.045 1.633a.672.672 0 0 0-.77-.69H120.2v2.428h.372V2.363h.438l.664 1.009h.438l-.73-1.022a.662.662 0 0 0 .664-.717m-1.473.411v-.783h.571c.263 0 .506.08.5.372 0 .309-.2.411-.518.411Z"/></svg>