<svg viewBox="0 0 32 32" xmlns="http://www.w3.org/2000/svg"><path fill="none" data-name="Rechteck 11000" d="M314 13439h32v32h-32z"/><path d="m11.847 25.71-5.406-2.163A2.09 2.09 0 0 1 5.12 21.6V8.648a1.425 1.425 0 0 1 1.956-1.327l5.328 2.132a.607.607 0 0 0 .446 0l5.753-2.303a2.1 2.1 0 0 1 1.561 0l5.405 2.163a2.09 2.09 0 0 1 1.321 1.951v12.945a1.425 1.425 0 0 1-1.956 1.327l-5.327-2.128a.609.609 0 0 0-.447 0l-5.753 2.3a2.1 2.1 0 0 1-1.561 0ZM6.62 21.6a.6.6 0 0 0 .378.559l4.879 1.951V10.857l-.031-.012L6.62 8.754Zm6.756 2.51 5.226-2.091.032-.019V8.754l-5.227 2.091-.031.012Zm6.787-2.091 5.228 2.081V11.264a.6.6 0 0 0-.379-.559l-4.878-1.951V22Z" data-name="Pfad 39400"/></svg>