<svg id="root" class="icon icon--default icon--youtube" xmlns="http://www.w3.org/2000/svg" viewBox="0 0 31.996 22.394"><path d="M31.331 3.5a4.018 4.018 0 0 0-2.83-2.83c-2.5-.67-12.5-.67-12.5-.67s-10 0-12.5.667a4.015 4.015 0 0 0-2.829 2.83 41.687 41.687 0 0 0-.667 7.7 41.672 41.672 0 0 0 .667 7.7 4.013 4.013 0 0 0 2.829 2.83c2.5.667 12.5.667 12.5.667s10.008 0 12.5-.667a4.016 4.016 0 0 0 2.831-2.83 41.845 41.845 0 0 0 .667-7.7 41.825 41.825 0 0 0-.668-7.697zM12.81 15.989V6.411l8.293 4.789z"/></svg>