<svg xmlns="http://www.w3.org/2000/svg" viewBox="0 0 64 64"><path d="M14.3 64C6.4 64 0 57.6 0 49.7V14.3C0 6.4 6.4 0 14.3 0h35.3C57.6 0 64 6.4 64 14.3v35.3c0 8-6.4 14.4-14.4 14.4H14.3zM2.8 14.3v35.3C2.8 56 8 61.2 14.3 61.2h35.3c6.4 0 11.5-5.2 11.5-11.5V28.5c-.2.1-.5.1-.7.1-1.1 0-2-.8-2-1.9v-3.9l-3.4 2c-.9.5-2.1.2-2.6-.8-.6-.9-.3-2.1.6-2.7l3.4-2-3.4-1.9c-.9-.6-1.2-1.9-.5-2.8.6-.8 1.6-1.1 2.5-.7l3.4 2V12c0-1 .9-1.9 1.9-1.9-1.7-4.4-6-7.3-10.7-7.3H14.3C8 2.8 2.8 8 2.8 14.3zm30.5 35c-9.9-.1-17.4-6.5-18.3-15.7-.6-5 .9-10.1 4.3-13.9 3.6-3.9 8.7-6.1 14-6 5.1-.2 10.1 1.6 13.9 5l-5.6 6.8c-2.3-2.1-5.2-3.3-8.3-3.3-2.6 0-5 1.2-6.6 3.2-2.1 2.8-2.7 6.4-1.5 9.7 1.2 3.5 4.4 6 8.1 6.1 2.1.2 4.2-.3 6.1-1.4v-4.2h-3.9v-6.9h12.8V44c-4.2 3.5-9.4 5.4-14.9 5.3h-.1z" style="fill:#0c6"/></svg>