<?xml version="1.0" encoding="UTF-8"?>
<svg xmlns="http://www.w3.org/2000/svg" width="91.814" height="217.136" viewBox="0 0 91.814 217.136">
  <path id="Path_38887" data-name="Path 38887" d="M19828.5-7496.44c-7.469,0-10.084-2.991-10.084-9.354v-9.092c0-6.369,2.615-9.355,10.084-9.355h.6c7.463,0,10.074,2.986,10.074,9.355v9.092c0,6.363-2.611,9.354-10.074,9.354Zm-3.906-18.411v9.021c0,3.372.57,4.472,3.711,4.472h.986c3.146,0,3.711-1.1,3.711-4.472v-9.021c0-3.367-.564-4.466-3.711-4.466h-.986C19825.168-7519.317,19824.6-7518.218,19824.6-7514.851Zm42.307,18.072v-5.382c0-5.376.91-6.893,5.494-9.313,1.172-.647,4.246-2.2,5.3-2.806a2.346,2.346,0,0,0,1.512-2.159v-.8c0-1.552-1.209-1.974-2.91-1.974a50.726,50.726,0,0,0-8,1.023l-1.664-4.729a48.436,48.436,0,0,1,10.264-1.326c5.418,0,8.486,1.7,8.486,6.667v1.321c0,3.146-1.7,4.78-4.318,6.214-1.248.684-4.77,2.5-6.023,3.259a3.934,3.934,0,0,0-1.969,3.829v1.136h12.5v5.037Zm-22.949,0v-5.382c0-5.376.9-6.893,5.488-9.313,1.178-.647,4.24-2.2,5.3-2.806a2.35,2.35,0,0,0,1.516-2.159v-.8c0-1.552-1.213-1.974-2.918-1.974a50.573,50.573,0,0,0-7.988,1.023l-1.676-4.729a48.644,48.644,0,0,1,10.275-1.326c5.412,0,8.48,1.7,8.48,6.667v1.321c0,3.146-1.707,4.78-4.322,6.214-1.244.684-4.77,2.5-6.02,3.259a3.927,3.927,0,0,0-1.969,3.829v1.136h12.5v5.037Zm-48.717,0v-5.382c0-5.376.914-6.893,5.494-9.313,1.172-.647,4.24-2.2,5.3-2.806a2.344,2.344,0,0,0,1.516-2.159v-.8c0-1.552-1.213-1.974-2.914-1.974a50.815,50.815,0,0,0-8,1.023l-1.664-4.729a48.486,48.486,0,0,1,10.264-1.326c5.418,0,8.486,1.7,8.486,6.667v1.321c0,3.146-1.707,4.78-4.318,6.214-1.248.684-4.77,2.5-6.023,3.259a3.934,3.934,0,0,0-1.969,3.829v1.136h12.5v5.037Zm76.713-31.035v-17.542h6.543c4.775,0,7.006,1.3,7.006,6.009v5.53c0,3.927-1.229,6-6.543,6Zm3.994-3.182h2.766c2.354,0,2.791-.663,2.791-2.328v-5.834c0-1.933-.094-2.986-2.6-2.986h-2.961Zm-11.457,3.182-3.232-7.031h-2.324v7.031h-3.994v-17.542h6.766c3.6,0,6.367.565,6.367,5.125v.735a4.074,4.074,0,0,1-2.9,4.282l3.83,7.4Zm-5.557-10.043h3.377c1.254,0,1.77-.514,1.77-1.593v-1.125c0-1.08-.516-1.568-2.135-1.568h-3.012Zm-10.906,10.043L19847-7531h-5.906l-1.029,3.182h-4.436l6.18-17.542h4.48l6.148,17.542Zm-6.193-6.368h4.43l-2.23-7.3Zm-15.318,6.368-3.176-12.1-3.166,12.1h-5.289l-3.875-17.542h4.363l2.3,13.282,3.408-12.742h4.527l3.408,12.742,2.3-13.282h4.334l-3.871,17.542Zm-19.885,0L19805.6-7531h-5.9l-1.033,3.182h-4.432l6.174-17.542h4.48l6.148,17.542Zm-6.2-6.368h4.43l-2.225-7.3Zm52.756-19.779v-6.938c0-4.2,1.666-6.117,6.313-6.117a42.968,42.968,0,0,1,7.063.694l-.721,3.135a39.119,39.119,0,0,0-5.891-.57c-2.441,0-2.713.946-2.713,3.058v6.687c0,1.743.678,2.036,2.488,2.036a14.3,14.3,0,0,0,3.258-.494v-3.927h-3.232v-3.233h7.283v9.221a18.035,18.035,0,0,1-8.158,1.64C19855.971-7548.77,19853.186-7549.736,19853.186-7553.961Zm-24.811,4.3,1.1-3.233a23.083,23.083,0,0,0,5.643.8c2.01,0,2.781-.8,2.781-2.087v-.426c0-1.439-.668-1.861-2.359-1.861h-2.189c-3.33,0-4.945-1.892-4.945-4.873v-.473c.078-3.408,2.088-5.2,5.566-5.2h.6a59.674,59.674,0,0,1,7.4.647l-1.193,3.156c-1.834-.221-4.477-.447-5.838-.473h-.674a1.556,1.556,0,0,0-1.764,1.768v.494c0,.9.371,1.516,1.619,1.516h2.555c3.285,0,5.346,1.342,5.346,5.022v.9c0,3.2-2.236,5.217-6.887,5.217A27.181,27.181,0,0,1,19828.375-7549.664Zm52.68.673-6.486-11.19v11.19h-3.928v-17.8h3.906l6.637,11.041v-11.041h3.951v17.8Zm-35.574,0v-17.8h4.051v17.8Zm-32.293,0v-17.8h12.279l-.525,3.335h-7.705v3.552h7.607l-.52,3.336h-7.088v4.25h8.133v3.331Zm-17.23,0v-17.8h6.641c4.848,0,7.109,1.321,7.109,6.1v5.613c0,3.979-1.244,6.1-6.641,6.1Zm4.051-3.238h2.816c2.381,0,2.832-.668,2.832-2.359v-5.911c0-1.969-.1-3.038-2.637-3.038h-3.012Zm-4.41-22.287v-5.813c0-3.526,1.393-5.129,5.289-5.129a36.724,36.724,0,0,1,5.926.581l-.611,2.632a32.415,32.415,0,0,0-4.934-.478c-2.047,0-2.277.786-2.277,2.56v5.607c0,1.46.564,1.707,2.086,1.707a11.879,11.879,0,0,0,2.73-.411v-3.294h-2.709v-2.709h6.111v7.736a15.242,15.242,0,0,1-6.842,1.372C19797.926-7570.157,19795.6-7570.969,19795.6-7574.515Zm86.115,4.173-5.439-9.385v9.385h-3.293v-14.926h3.273l5.566,9.257v-9.257h3.314v14.926Zm-14.711,0-.879-2.708h-5.027l-.873,2.708h-3.773l5.254-14.926h3.809l5.236,14.926Zm-5.279-5.422h3.773l-1.9-6.214Zm-10.8,5.422v-9.843l-3.6,7.545h-2.186l-3.607-7.545v9.843h-3.295v-14.926h4.127l3.861,8.316,3.869-8.316h4.133v14.926Zm-18.947,0-2.754-5.983h-1.975v5.983h-3.4v-14.926h5.75c3.064,0,5.424.478,5.424,4.354v.627a3.47,3.47,0,0,1-2.467,3.645l3.252,6.3Zm-4.729-8.547h2.873c1.064,0,1.506-.442,1.506-1.357v-.956c0-.92-.441-1.336-1.818-1.336h-2.561Zm-16.746,8.547v-14.926h10.3l-.437,2.791h-6.465v2.981h6.383l-.441,2.8h-5.941v3.562h6.82v2.8Zm-15.449-68.983a45.314,45.314,0,0,1,38.949-45.021v-10.763c-8.732-2.935-14.443-9.93-14.623-18.468h13a8.117,8.117,0,0,0,8.168,7.679,8.117,8.117,0,0,0,8.168-7.679h13.008c-.18,8.538-5.885,15.533-14.623,18.468v10.763a45.26,45.26,0,0,1,38.945,45.021,45.493,45.493,0,0,1-45.5,45.494A45.5,45.5,0,0,1,19795.049-7639.325Zm45.5,33.394a33.4,33.4,0,0,0,33.4-33.394,33.4,33.4,0,0,0-33.4-33.4,33.434,33.434,0,0,0-32.73,26.784h13.42c2.92-8.728,10.465-14.484,19.131-14.572v13.02a8.174,8.174,0,0,0-8.086,8.085,8.188,8.188,0,0,0,8.086,8.085v13.014c-8.666-.087-16.211-5.844-19.131-14.566h-13.451A33.437,33.437,0,0,0,19840.547-7605.931Z" transform="translate(-19794.23 7713.576)" fill="#1d1d1f"></path>
</svg>
