<?xml version="1.0" encoding="utf-8"?>
<!-- Generator: Adobe Illustrator 26.2.1, SVG Export Plug-In . SVG Version: 6.00 Build 0)  -->
<svg version="1.1" id="Ebene_1" xmlns="http://www.w3.org/2000/svg" xmlns:xlink="http://www.w3.org/1999/xlink" x="0px" y="0px"
	 viewBox="0 0 182.9 182.9" style="enable-background:new 0 0 182.9 182.9;" xml:space="preserve">
<style type="text/css">
	.st0{fill:#00CC66;}
</style>
<g id="V8" transform="translate(-45.436 -45.315)">
	<path id="Path_386" class="st0" d="M187.3,45.3H86.4c-22.6,0-41,18.4-41,41v100.9c0,22.6,18.4,41,41,41h100.9c22.6,0,41-18.4,41-41
		V86.3C228.3,63.7,209.9,45.3,187.3,45.3z M220.2,187.2c0,18.2-14.7,32.9-32.9,32.9H86.4c-18.2,0-32.9-14.7-32.9-32.9V86.3
		c0-18.2,14.7-32.9,32.9-32.9h100.9c18.1-0.1,32.9,14.6,32.9,32.7c0,0,0,0,0,0.1V187.2z"/>
	<g id="Group_130" transform="translate(72.55 94.751)">
		<path id="Path_387" class="st0" d="M16.3,2.7l19,61.9L54.4,2.7h15.9L43,82H27.1L0,2.7H16.3z"/>
		<path id="Path_38739" class="st0" d="M71.9,23.9C71.9,10.3,83.5,0,98.6,0c15.3,0,26.8,10.3,26.8,23.9c0,7.3-2.9,12.4-9.1,16.3
			c7.2,4.1,10.7,10.1,10.7,18.3c0,14.7-12.2,25.6-28.5,25.6S70.3,73.1,70.3,58.4c0-8.2,3.5-14,10.7-18.3
			C74.7,36.2,71.9,31.2,71.9,23.9z M85.9,59.1c0,7.3,5.3,12.4,12.8,12.4c7.6,0,12.9-5.2,12.9-12.4c0-7.3-5.3-12.5-12.8-12.5
			C91.1,46.6,85.8,51.7,85.9,59.1z M87.5,23.4c0,6.5,4.6,10.8,11.3,10.8s11.3-4.5,11.3-10.8s-4.7-10.9-11.2-10.9
			C92.1,12.4,87.5,16.8,87.5,23.4z"/>
	</g>
</g>
</svg>
