<svg xmlns="http://www.w3.org/2000/svg" width="960" height="850" viewBox="0 0 960 850">
  <g id="Gruppe_48461" data-name="Gruppe 48461" transform="translate(-2350.39 -21866)">
    <path id="Pfad_40204" data-name="Pfad 40204" d="M0,0H960V850H0Z" transform="translate(2350.39 21866)" fill="none"/>
    <path id="Pfad_40206" data-name="Pfad 40206" d="M-.61-88.371,30.774,4.88H56.5L88.139-88.371H65.759L44.279-19.815,22.8-88.371Zm118.46,0H95.856V4.88H117.85ZM207.5-61.36c-3.087-20.579-20.708-28.554-38.844-28.554-18.264,0-38.715,8.875-38.715,27.911,0,16.721,13.762,24.052,28.94,27.139L170.2-32.549c10.29,2.187,17.364,5.145,17.364,11.19,0,7.717-8.36,10.161-15.949,10.161-11.447,0-19.165-4.5-21.608-14.277H128.14C131.613-5.281,147.047,6.552,171.1,6.552c19.422,0,39.1-11.061,39.1-30.612s-19.036-24.181-34.085-27.268L163.382-53.9c-6.56-1.415-10.8-4.759-10.8-9.389,0-5.788,6.174-9,14.791-9,9.389,0,16.206,3.859,18.393,10.933Zm35.757-27.011H221.262V4.88h21.994Zm34.471,46.69c0-19.808,11.319-30.1,25.081-30.1s25.081,10.29,25.081,30.1-11.319,30.1-25.081,30.1S277.727-21.873,277.727-41.681Zm73.443,0c0-29.068-19.808-48.233-48.362-48.233-28.683,0-48.362,19.165-48.362,48.233S274.125,6.552,302.808,6.552C331.362,6.552,351.169-12.612,351.169-41.681ZM447.893,4.88V-88.371H426.67V-24.06L389.241-88.371H362.488V4.88h21.223V-59.431L421.139,4.88Z" transform="translate(2351 22353.914)" fill="#dee3e1"/>
    <path id="Pfad_40207" data-name="Pfad 40207" d="M-.61,101.8H22.8L28.33,85.208H64.344L70,101.8H93.927L58.684,8.55H34.5ZM46.465,31.83l11.962,35.5H34.375ZM187.177,101.8V8.55H165.955V72.861L128.526,8.55H101.773V101.8H123V37.49L160.424,101.8Zm78.845-46.69c0,24.7-14.791,28.168-30.869,28.168h-9.132V27.072h9.132C251.231,27.072,266.022,30.416,266.022,55.111Zm-62-46.561V101.8h30.74c30.483,0,54.535-11.19,54.535-46.69C289.3,19.74,265.25,8.55,234.767,8.55Z" transform="translate(2351 22359.258)" fill="#dee3e1"/>
    <path id="Pfad_40208" data-name="Pfad 40208" d="M8.052-88.371V4.88H30.046V-27.4H43.937c24.181,0,42.316-6.045,42.316-30.612,0-24.438-18.136-30.355-42.316-30.355ZM44.58-69.849c10.29,0,18.393,2.058,18.393,11.833s-8.1,12.09-18.393,12.09H30.046V-69.849Zm72.542-18.522H95.129V4.88h21.994Zm34.471,46.69c0-19.808,11.319-30.1,25.081-30.1s25.081,10.29,25.081,30.1-11.319,30.1-25.081,30.1S151.593-21.873,151.593-41.681Zm73.443,0c0-29.068-19.808-48.233-48.362-48.233-28.683,0-48.362,19.165-48.362,48.233S147.992,6.552,176.675,6.552C205.229,6.552,225.036-12.612,225.036-41.681ZM321.759,4.88V-88.371H300.537V-24.06L263.108-88.371H236.355V4.88h21.223V-59.431L295.006,4.88Zm16.849,0h71.513V-14.542H360.6V-33.321h46.818V-52.742H360.6V-69.077h49.519V-88.371H338.609Zm85.276,0H495.4V-14.542H445.879V-33.321H492.7V-52.742H445.879V-69.077H495.4V-88.371H423.885Zm142.384,0h25.853L569.1-33.835c10.676-4.116,18.264-11.962,18.264-25.724,0-23.152-18.136-28.811-42.316-28.811H509.161V4.88h21.994V-30.234h14.92ZM545.689-69.849c10.418,0,18.393,1.929,18.393,10.547,0,8.875-7.974,10.547-18.393,10.547H531.155V-69.849Zm78.2-18.522H601.9V4.88h21.994ZM726.145,4.88V-88.371H704.922V-24.06L667.494-88.371H640.74V4.88h21.223V-59.431L699.392,4.88Zm58.78-94.794c-28.3,0-47.59,18.393-47.59,47.847,0,29.84,16.978,48.619,44.374,48.619,13.377,0,22.509-3.73,28.554-11.962l.643,10.29h16.849V-47.083h-44.5v18.007h22.509v1.8c0,11.833-10.547,15.692-20.708,15.692-14.791,0-24.438-10.8-24.438-30.483s10.547-29.712,24.052-29.712c11.962,0,18.393,6.174,20.451,12.6h21.608C822.225-79.5,805.633-89.914,784.925-89.914Z" transform="translate(2351.47 22563.713)" fill="#1d1d1f"/>
    <path id="Pfad_40205" data-name="Pfad 40205" d="M81.855,35.137C78.743,14.389,60.977,6.349,42.693,6.349,24.279,6.349,3.66,15.3,3.66,34.489c0,16.858,13.875,24.249,29.177,27.362l11.411,2.334c10.374,2.2,17.506,5.187,17.506,11.282,0,7.781-8.429,10.244-16.08,10.244-11.541,0-19.322-4.539-21.785-14.394H1.845c3.5,20.359,19.062,32.289,43.312,32.289,19.581,0,39.421-11.152,39.421-30.863S65.386,48.364,50.214,45.252L37.376,42.658c-6.613-1.426-10.893-4.8-10.893-9.466,0-5.835,6.224-9.077,14.913-9.077,9.466,0,16.339,3.89,18.544,11.022ZM95.73,7.905V101.92H117.9V69.371h14c24.379,0,42.663-6.095,42.663-30.863,0-24.638-18.284-30.6-42.663-30.6Zm36.828,18.673c10.374,0,18.544,2.075,18.544,11.93s-8.17,12.19-18.544,12.19H117.9V26.578ZM205.7,7.905H183.521V101.92H205.7Zm74.563,94.015h26.065L283.111,62.888c10.763-4.15,18.414-12.06,18.414-25.935,0-23.342-18.284-29.047-42.663-29.047h-36.18V101.92h22.175v-35.4H259.9ZM259.51,26.578c10.5,0,18.544,1.945,18.544,10.633,0,8.948-8.04,10.633-18.544,10.633H244.857V26.578ZM338.353,7.905H316.179V101.92h22.174Zm39.162,94.015h22.3V27.356h30.214V7.905h-82.6V27.356h30.085Zm67.95,0V78.838h-24.12V101.92Z" transform="translate(2351.133 22569.994)" fill="#1d1d1f"/>
    <path id="Pfad_39263" data-name="Pfad 39263" d="M70.114,340.267V210H47.654C41.9,224.195,32.921,230.483,11,231.022v21.741H40.647v87.5Z" transform="translate(2348.522 21656)" fill="#dee3e1"/>
  </g>
</svg>
