<svg xmlns="http://www.w3.org/2000/svg" width="960" height="900" viewBox="0 0 960 900">
  <g id="Gruppe_48463" data-name="Gruppe 48463" transform="translate(-9722 -18410)">
    <rect id="Rechteck_10933" data-name="Rechteck 10933" width="960" height="900" transform="translate(9722 18410)" fill="none"/>
    <path id="Pfad_40210" data-name="Pfad 40210" d="M14.388-158.05V0H51.666V-54.718H75.21c40.984,0,71.722-10.246,71.722-51.884,0-41.42-30.738-51.448-71.722-51.448ZM76.3-126.658c17.44,0,31.174,3.488,31.174,20.056S93.74-86.11,76.3-86.11H51.666v-40.548ZM129.928,0H169.6l9.374-28.122h61.04L249.61,0h40.548L230.426-158.05H189.442Zm79.788-118.592L229.99-58.424H189.224ZM426.19-112.27c-5.232-34.88-35.1-48.4-65.836-48.4-30.956,0-65.618,15.042-65.618,47.306,0,28.34,23.326,40.766,49.05,46l19.184,3.924c17.44,3.706,29.43,8.72,29.43,18.966,0,13.08-14.17,17.222-27.032,17.222-19.4,0-32.482-7.63-36.624-24.2h-37.06C297.57-17.222,323.73,2.834,364.5,2.834c32.918,0,66.272-18.748,66.272-51.884S398.5-90.034,373-95.266l-21.582-4.36c-11.118-2.4-18.312-8.066-18.312-15.914,0-9.81,10.464-15.26,25.07-15.26,15.914,0,27.468,6.54,31.174,18.53Zm150.2,0c-5.232-34.88-35.1-48.4-65.836-48.4-30.956,0-65.618,15.042-65.618,47.306,0,28.34,23.326,40.766,49.05,46l19.184,3.924c17.44,3.706,29.43,8.72,29.43,18.966,0,13.08-14.17,17.222-27.032,17.222-19.4,0-32.482-7.63-36.624-24.2h-37.06C447.772-17.222,473.932,2.834,514.7,2.834c32.918,0,66.272-18.748,66.272-51.884S548.706-90.034,523.2-95.266l-21.582-4.36c-11.118-2.4-18.312-8.066-18.312-15.914,0-9.81,10.464-15.26,25.07-15.26,15.914,0,27.468,6.54,31.174,18.53Z" transform="translate(9707.612 19043)" fill="#131313"/>
    <path id="Pfad_40209" data-name="Pfad 40209" d="M51.429,14.675H14.322V172H51.429Zm58.156,78.771c0-33.418,19.1-50.778,42.315-50.778s42.315,17.36,42.315,50.778-19.1,50.778-42.315,50.778S109.585,126.864,109.585,93.446Zm123.907,0c0-49.042-33.418-81.375-81.592-81.375-48.391,0-81.592,32.333-81.592,81.375s33.2,81.375,81.592,81.375C200.074,174.821,233.492,142.488,233.492,93.446ZM396.676,172V14.675H360.871v108.5l-63.147-108.5H252.588V172h35.8V63.5L351.54,172Zm64.883,0V133.374H421.2V172Z" transform="translate(9707.678 19042)" fill="#fff"/>
    <path id="Pfad_40211" data-name="Pfad 40211" d="M66.15-154.77c-35.28,0-60.69,21.21-59.64,57.33H40.74c-1.05-24.36,12.18-31.71,24.36-31.71,11.55,0,21.21,6.09,21.21,19.32,0,24.99-40.53,51.66-81.48,81.48V0H121.8V-28.35H48.93c44.94-25.83,72.24-51.66,72.24-83.58C121.17-139.02,98.07-154.77,66.15-154.77Z" transform="translate(9717.17 18574)" fill="#fff"/>
  </g>
</svg>
