<svg xmlns="http://www.w3.org/2000/svg" width="960" height="900" viewBox="0 0 960 900">
  <g id="Gruppe_48464" data-name="Gruppe 48464" transform="translate(-10758 -18410)">
    <rect id="Rechteck_10934" data-name="Rechteck 10934" width="960" height="900" transform="translate(10758 18410)" fill="none"/>
    <path id="Pfad_40213" data-name="Pfad 40213" d="M39.816-121.8H11.088V0H39.816ZM173.376,0V-121.8h-27.72v84l-48.888-84H61.824V0h27.72V-84L138.432,0Zm133.56,0V-121.8h-27.72v84l-48.888-84H195.384V0H223.1V-84L271.992,0ZM351.96-60.816c0-25.872,14.784-39.312,32.76-39.312s32.76,13.44,32.76,39.312S402.7-21.5,384.72-21.5,351.96-34.944,351.96-60.816Zm95.928,0c0-37.968-25.872-63-63.168-63-37.464,0-63.168,25.032-63.168,63s25.7,63,63.168,63C422.016,2.184,447.888-22.848,447.888-60.816Z" transform="translate(10758.84 18886)" fill="#525252"/>
    <path id="Pfad_40214" data-name="Pfad 40214" d="M-.84,11.2,40.152,133h33.6L115.08,11.2H85.848L57.792,100.744,29.736,11.2ZM99.792,133h30.576l7.224-21.672h47.04L192.024,133h31.248L177.24,11.2H145.656ZM161.28,41.608,176.9,87.976H145.488ZM244.608,133h28.9V36.4h39.144V11.2H205.632V36.4h38.976ZM353.3,11.2H324.576V133H353.3Zm10.08,0L404.376,133h33.6L479.3,11.2H450.072l-28.056,89.544L393.96,11.2Zm126,121.8h93.408V107.632h-64.68V83.1h61.152V57.736H518.112V36.4h64.68V11.2H489.384Z" transform="translate(10758.84 18886)" fill="#525252"/>
    <path id="Pfad_40215" data-name="Pfad 40215" d="M11.088,0H104.5V-25.368H39.816V-49.9h61.152V-75.264H39.816V-96.6H104.5v-25.2H11.088Zm98.448,0h33.1L171.7-39.48,200.76,0h33.768L188.664-62.5l43.848-59.3H199.248L172.2-85.008,145.32-121.8H111.552l43.68,59.808ZM320.712-45.36c-3.7,18.48-16.968,23.856-29.568,23.856-17.472,0-30.744-13.776-30.744-39.48,0-24.864,13.44-39.144,30.408-39.144,13.608,0,25.872,7.224,29.064,23.856H348.1c-4.032-27.72-25.872-47.544-56.28-47.544-38.136,0-61.824,24.36-61.824,62.832,0,38.976,23.016,63.168,60.984,63.168,30.744,0,53.424-19.32,57.96-47.544ZM363.384,0h93.408V-25.368h-64.68V-49.9h61.152V-75.264H392.112V-96.6h64.68v-25.2H363.384ZM503.5-121.8H474.768V0H561.96V-25.368H503.5Z" transform="translate(10758.84 19158)" fill="#fff"/>
    <path id="Pfad_40212" data-name="Pfad 40212" d="M39.816,11.2H11.088V133H98.28V107.632H39.816ZM109.2,133h93.408V107.632h-64.68V83.1H199.08V57.736H137.928V36.4h64.68V11.2H109.2Zm222.936,0V11.2h-27.72v84l-48.888-84H220.584V133H248.3V49l48.888,84ZM437.472,87.64C433.776,106.12,420.5,111.5,407.9,111.5c-17.472,0-30.744-13.776-30.744-39.48,0-24.864,13.44-39.144,30.408-39.144,13.608,0,25.872,7.224,29.064,23.856h28.224c-4.032-27.72-25.872-47.544-56.28-47.544-38.136,0-61.824,24.36-61.824,62.832,0,38.976,23.016,63.168,60.984,63.168,30.744,0,53.424-19.32,57.96-47.544ZM480.144,133h93.408V107.632h-64.68V83.1h61.152V57.736H508.872V36.4h64.68V11.2H480.144Zm144.648,0V103.1H593.544V133Z" transform="translate(10758.84 19158)" fill="#fff"/>
    <path id="Pfad_40216" data-name="Pfad 40216" d="M66.15-22.89c-13.23,0-26.04-6.93-28.35-24.78H3.36C7.35-12.18,35.28,2.73,65.52,2.73,97.23,2.73,126-13.02,126-44.31c0-14.07-8.61-30.03-23.73-36.12,10.71-6.09,21.21-18.69,21.21-34.65,0-27.72-28.77-39.69-55.65-39.69-30.66,0-59.22,13.44-62.58,46.83H39.48c2.31-16.17,13.65-21.21,26.67-21.21,11.34,0,22.47,5.88,22.47,17.01,0,13.44-11.97,19.95-31.92,19.95H47.67v28.56H57.75c19.53,0,32.76,6.09,32.76,19.53C90.51-30.03,81.27-22.89,66.15-22.89Z" transform="translate(10754.64 18574)" fill="#fff"/>
  </g>
</svg>
