<svg xmlns="http://www.w3.org/2000/svg" width="960" height="900.25" viewBox="0 0 960 900.25">
  <g id="Gruppe_48465" data-name="Gruppe 48465" transform="translate(-11831 -18409.75)">
    <rect id="Bild_1318" data-name="Bild 1318" width="960" height="900" transform="translate(11831 18410)" fill="none"/>
    <path id="Pfad_40220" data-name="Pfad 40220" d="M-.84,0H29.736L36.96-21.672H84L91.392,0H122.64L76.608-121.8H45.024ZM60.648-91.392,76.272-45.024H44.856Z" transform="translate(11831.84 18874)"/>
    <path id="Pfad_40218" data-name="Pfad 40218" d="M94.416,87.64C90.72,106.12,77.448,111.5,64.848,111.5,47.376,111.5,34.1,97.72,34.1,72.016c0-24.864,13.44-39.144,30.408-39.144,13.608,0,25.872,7.224,29.064,23.856H121.8C117.768,29.008,95.928,9.184,65.52,9.184,27.384,9.184,3.7,33.544,3.7,72.016c0,38.976,23.016,63.168,60.984,63.168,30.744,0,53.424-19.32,57.96-47.544Zm71.4-76.44H137.088V133H224.28V107.632H165.816ZM235.2,133h93.408V107.632h-64.68V83.1H325.08V57.736H263.928V36.4h64.68V11.2H235.2Zm99.456,0h30.576l7.224-21.672H419.5L426.888,133h31.248L412.1,11.2H380.52Zm61.488-91.392,15.624,46.368H380.352ZM542.976,133h33.768L546.672,82.432c13.944-5.376,23.856-15.624,23.856-33.6,0-30.24-23.688-37.632-55.272-37.632H468.384V133h28.728V87.136H516.6ZM516.1,35.392c13.608,0,24.024,2.52,24.024,13.776,0,11.592-10.416,13.776-24.024,13.776H497.112V35.392Z" transform="translate(11831.84 18874)"/>
    <path id="Pfad_40219" data-name="Pfad 40219" d="M11.088,0H39.816V-49.9H97.1V-75.264H39.816V-96.6H100.8v-25.2H11.088ZM137.424-60.816c0-25.872,14.784-39.312,32.76-39.312s32.76,13.44,32.76,39.312S188.16-21.5,170.184-21.5,137.424-34.944,137.424-60.816Zm95.928,0c0-37.968-25.872-63-63.168-63-37.464,0-63.168,25.032-63.168,63s25.7,63,63.168,63C207.48,2.184,233.352-22.848,233.352-60.816Z" transform="translate(11831.84 19146)" fill="#fff"/>
    <path id="Pfad_40217" data-name="Pfad 40217" d="M94.416,87.64C90.72,106.12,77.448,111.5,64.848,111.5,47.376,111.5,34.1,97.72,34.1,72.016c0-24.864,13.44-39.144,30.408-39.144,13.608,0,25.872,7.224,29.064,23.856H121.8C117.768,29.008,95.928,9.184,65.52,9.184,27.384,9.184,3.7,33.544,3.7,72.016c0,38.976,23.016,63.168,60.984,63.168,30.744,0,53.424-19.32,57.96-47.544ZM135.072,11.2V80.92c0,40.152,16.464,54.264,52.92,54.264,37.968,0,52.416-17.808,52.416-55.272V11.2H211.68V82.264c0,17.976-3.528,29.4-23.688,29.4-19.992,0-24.192-9.912-24.192-27.72V11.2ZM355.656,46.48c-4.032-26.88-27.048-37.3-50.736-37.3-23.856,0-50.568,11.592-50.568,36.456,0,21.84,17.976,31.416,37.8,35.448l14.784,3.024c13.44,2.856,22.68,6.72,22.68,14.616,0,10.08-10.92,13.272-20.832,13.272-14.952,0-25.032-5.88-28.224-18.648H252c4.536,26.376,24.7,41.832,56.112,41.832,25.368,0,51.072-14.448,51.072-39.984s-24.864-31.584-44.52-35.616l-16.632-3.36c-8.568-1.848-14.112-6.216-14.112-12.264,0-7.56,8.064-11.76,19.32-11.76,12.264,0,21.168,5.04,24.024,14.28ZM401.016,133V103.1H369.768V133Z" transform="translate(11831.84 19146)" fill="#fff"/>
    <path id="Pfad_40221" data-name="Pfad 40221" d="M75.81-107.1v44.52H39.69Zm55.65,44.52h-21v-89.67H78.33L1.68-59.22v27.09H75.81V0h34.65V-32.13h21Z" transform="translate(11833.856 18562)" fill="#fff"/>
  </g>
</svg>
