<svg xmlns="http://www.w3.org/2000/svg" width="960.705" height="900.25" viewBox="0 0 960.705 900.25">
  <g id="Gruppe_48466" data-name="Gruppe 48466" transform="translate(-12703 -18409.75)">
    <path id="Pfad_40222" data-name="Pfad 40222" d="M0,0H960V900H0Z" transform="translate(12703.705 18410)" fill="none"/>
    <path id="Pfad_40224" data-name="Pfad 40224" d="M77.127-102.225H52.17L38.352-31.584,24.393-102.225H0L23.406,0h25.8L64.578-72.051,80.088,0h25.944l23.124-102.225H105.045L92.214-31.3ZM138.462,0h78.4V-21.291H162.573V-41.877H213.9V-63.168H162.573V-81.075h54.285v-21.15h-78.4Z" transform="translate(12703 18925)" fill="#525252"/>
    <path id="Pfad_40225" data-name="Pfad 40225" d="M77.127,9.775H52.17L38.352,80.416,24.393,9.775H0L23.406,112h25.8L64.578,39.949,80.088,112h25.944L129.156,9.775H105.045L92.214,80.7ZM119.709,112h25.662l6.063-18.189h39.48l6.2,18.189h26.226L184.71,9.775H158.2Zm51.606-76.7,13.113,38.916H158.061ZM325.569,112V9.775H302.3v70.5l-41.031-70.5H231.945V112H255.21V41.5L296.241,112Zm42.582,0H392.4V30.925h32.853V9.775H335.439v21.15h32.712Z" transform="translate(12703 18925)" fill="#525252"/>
    <path id="Pfad_40226" data-name="Pfad 40226" d="M33.417,0H57.669V-81.075H90.522v-21.15H.7v21.15H33.417Zm83.049-51.042c0-21.714,12.408-32.994,27.495-32.994s27.495,11.28,27.495,32.994-12.408,32.994-27.495,32.994S116.466-29.328,116.466-51.042Zm80.511,0c0-31.866-21.714-52.875-53.016-52.875-31.443,0-53.016,21.009-53.016,52.875S112.518,1.833,143.961,1.833C175.263,1.833,196.977-19.176,196.977-51.042ZM239.7,0h46.389C310.9,0,327.4-8.46,327.4-31.443c0-12.408-6.627-19.6-16.215-22.983,7.9-4.935,12.126-11.844,12.126-21.291,0-21.432-16.638-26.508-39.057-26.508H239.7Zm24.111-43.428h22.56c10.293,0,15.51,4.371,15.51,11.562S296.664-20.3,286.371-20.3h-22.56Zm0-38.493H285.1c8.46,0,13.113,3.807,13.113,10.152S293.562-61.335,285.1-61.335H263.811ZM340.374,0h78.4V-21.291H364.485V-41.877h51.324V-63.168H364.485V-81.075H418.77v-21.15h-78.4Z" transform="translate(12703 19154)" fill="#fff"/>
    <path id="Pfad_40223" data-name="Pfad 40223" d="M33.417,112H57.669V30.925H90.522V9.775H.7v21.15H33.417ZM166.662,9.775V48.832H124.644V9.775H100.533V112h24.111V70.123h42.018V112h24.111V9.775ZM209.385,112h78.4V90.709H233.5V70.123H284.82V48.832H233.5V30.925h54.285V9.775h-78.4Zm123.8,0h46.389c24.816,0,41.313-8.46,41.313-31.443,0-12.408-6.627-19.6-16.215-22.983,7.9-4.935,12.126-11.844,12.126-21.291,0-21.432-16.638-26.508-39.057-26.508H333.183Zm24.111-43.428h22.56c10.293,0,15.51,4.371,15.51,11.562S390.147,91.7,379.854,91.7h-22.56Zm0-38.493h21.291c8.46,0,13.113,3.807,13.113,10.152s-4.653,10.434-13.113,10.434H357.294ZM433.857,112h78.4V90.709H457.968V70.123h51.324V48.832H457.968V30.925h54.285V9.775h-78.4ZM607.146,39.385c-3.384-22.56-22.7-31.3-42.582-31.3-20.022,0-42.441,9.729-42.441,30.6,0,18.33,15.087,26.367,31.725,29.751l12.408,2.538c11.28,2.4,19.035,5.64,19.035,12.267,0,8.46-9.165,11.139-17.484,11.139-12.549,0-21.009-4.935-23.688-15.651h-23.97c3.807,22.137,20.727,35.109,47.094,35.109,21.291,0,42.864-12.126,42.864-33.558s-20.868-26.508-37.365-29.892l-13.959-2.82c-7.191-1.551-11.844-5.217-11.844-10.293,0-6.345,6.768-9.87,16.215-9.87,10.293,0,17.766,4.23,20.163,11.985ZM643.1,112h24.252V30.925h32.853V9.775H610.389v21.15H643.1Zm73.884,0V86.9H690.759V112Z" transform="translate(12703 19154)" fill="#fff"/>
    <path id="Pfad_40227" data-name="Pfad 40227" d="M69.93-22.89c-13.44,0-24.57-6.3-27.72-23.94H8.82C13.86-14.49,38.85,2.73,70.35,2.73c33.39,0,62.16-18.27,62.16-53.13,0-35.28-26.04-53.13-53.55-53.13-10.71,0-22.89,2.94-30.24,7.98l3.57-28.56h73.08v-28.14H23.52L12.81-65.94l31.71,3.15c5.25-9.87,14.07-15.12,26.04-15.12,13.44,0,26.25,9.03,26.25,27.72C96.81-32.55,85.26-22.89,69.93-22.89Z" transform="translate(12694.885 18562)" fill="#fff"/>
  </g>
</svg>
