<svg xmlns="http://www.w3.org/2000/svg" width="960.351" height="900.25" viewBox="0 0 960.351 900.25">
  <g id="Gruppe_48467" data-name="Gruppe 48467" transform="translate(-13666.84 -18391.23)">
    <path id="Pfad_40228" data-name="Pfad 40228" d="M0,0H960V900.25H0Z" transform="translate(13667.19 18391.23)" fill="none"/>
    <path id="Pfad_40231" data-name="Pfad 40231" d="M39.816,0h28.9V-96.6h39.144v-25.2H.84v25.2H39.816Zm158.76-121.8v46.536H148.512V-121.8H119.784V0h28.728V-49.9h50.064V0H227.3V-121.8ZM249.48,0h93.408V-25.368h-64.68V-49.9H339.36V-75.264H278.208V-96.6h64.68v-25.2H249.48Z" transform="translate(13666 18838)" fill="#88d98f"/>
    <path id="Pfad_40232" data-name="Pfad 40232" d="M65.856,9.184C28.9,9.184,3.7,33.208,3.7,71.68c0,38.976,22.176,63.5,57.96,63.5,17.472,0,29.4-4.872,37.3-15.624l.84,13.44H121.8V65.128H63.672v23.52h29.4V91c0,15.456-13.776,20.5-27.048,20.5C46.7,111.5,34.1,97.384,34.1,71.68S47.88,32.872,65.52,32.872c15.624,0,24.024,8.064,26.712,16.464h28.224C114.576,22.792,92.9,9.184,65.856,9.184ZM217.224,133h33.768L220.92,82.432c13.944-5.376,23.856-15.624,23.856-33.6,0-30.24-23.688-37.632-55.272-37.632H142.632V133H171.36V87.136h19.488Zm-26.88-97.608c13.608,0,24.024,2.52,24.024,13.776,0,11.592-10.416,13.776-24.024,13.776H171.36V35.392ZM263.76,133h93.408V107.632h-64.68V83.1H353.64V57.736H292.488V36.4h64.68V11.2H263.76Zm111.384,0h93.408V107.632h-64.68V83.1h61.152V57.736H403.872V36.4h64.68V11.2H375.144Zm222.936,0V11.2H570.36v84l-48.888-84H486.528V133h27.72V49l48.888,84Z" transform="translate(13666 18838)" fill="#88d98f"/>
    <path id="Pfad_40230" data-name="Pfad 40230" d="M11.088,0H39.816V-49.9H97.1V-75.264H39.816V-96.6H100.8v-25.2H11.088ZM93.072,0h30.576l7.224-21.672h47.04L185.3,0h31.248L170.52-121.8H138.936ZM154.56-91.392l15.624,46.368H138.768ZM309.12,0l27.216-97.608V0h27.888V-121.8H319.368L295.512-34.44,272.16-121.8H226.8V0h27.888V-97.44L282.072,0Z" transform="translate(13666 19110)" fill="#fff"/>
    <path id="Pfad_40229" data-name="Pfad 40229" d="M39.816,11.2H11.088V133H39.816Zm50.736,0H61.824V133h87.192V107.632H90.552Zm38.472,0,45.864,74.424V133h28.728V85.96l47.04-74.76H217.392L189.84,57.9,162.624,11.2ZM259.056,133V103.1H227.808V133Z" transform="translate(13666 19110)" fill="#fff"/>
    <path id="Pfad_40233" data-name="Pfad 40233" d="M44.73-49.98c0-16.8,9.66-27.09,24.78-27.09S93.66-65.94,93.66-49.98c0,16.59-9.03,27.09-24.15,27.09S44.73-33.39,44.73-49.98Zm26.88-79.8c10.92,0,20.16,4.62,21.84,18.9h34.02c-1.68-24.15-18.69-43.89-53.97-43.89-46.41,0-65.31,37.8-65.31,82.32,0,42.21,18.06,75.18,61.32,75.18,34.65,0,59.64-20.58,59.64-52.71,0-31.08-24.57-53.13-52.08-53.13-15.12,0-25.2,4.41-32.76,11.13C43.68-117.81,55.65-129.78,71.61-129.78Z" transform="translate(13658.649 18546)" fill="#fff"/>
  </g>
</svg>
